<?xml version="1.0" standalone="no"?>
<!DOCTYPE svg PUBLIC "-//W3C//DTD SVG 20010904//EN"
 "http://www.w3.org/TR/2001/REC-SVG-20010904/DTD/svg10.dtd">
<svg version="1.0" xmlns="http://www.w3.org/2000/svg"
 width="306.000000pt" height="306.000000pt" viewBox="0 0 306.000000 306.000000"
 preserveAspectRatio="xMidYMid meet">
<metadata>
Created by potrace 1.11, written by Peter Selinger 2001-2013
</metadata>
<g transform="translate(0.000000,306.000000) scale(0.100000,-0.100000)"
fill="#000000" stroke="none">
<path d="M0 1530 l0 -1530 1530 0 1530 0 0 1530 0 1530 -1530 0 -1530 0 0
-1530z m1852 1234 c146 -20 252 -45 358 -84 100 -37 210 -96 210 -113 0 -27
-156 -397 -168 -397 -7 0 -44 16 -83 36 -177 89 -369 134 -567 134 -225 0
-357 -52 -412 -160 -42 -84 -33 -171 26 -231 62 -63 148 -94 504 -179 385 -92
557 -171 677 -311 92 -108 127 -214 127 -384 -1 -129 -17 -193 -77 -309 -93
-180 -301 -321 -557 -380 -273 -62 -678 -39 -943 53 -183 64 -367 158 -367
188 0 7 39 100 87 207 95 213 85 204 160 153 260 -175 778 -253 1003 -151 102
46 150 113 150 206 0 59 -17 94 -65 136 -70 62 -128 83 -410 153 -442 110
-581 167 -711 294 -95 93 -138 169 -160 282 -50 265 47 525 255 677 113 83
304 157 467 181 127 18 362 18 496 -1z"/>
</g>
</svg>
