<?xml version="1.0" encoding="UTF-8" standalone="no"?>
<!-- Generator: Adobe Illustrator 19.0.0, SVG Export Plug-In . SVG Version: 6.00 Build 0)  -->

<svg
   xmlns:dc="http://purl.org/dc/elements/1.1/"
   xmlns:cc="http://creativecommons.org/ns#"
   xmlns:rdf="http://www.w3.org/1999/02/22-rdf-syntax-ns#"
   xmlns:svg="http://www.w3.org/2000/svg"
   xmlns="http://www.w3.org/2000/svg"
   xmlns:sodipodi="http://sodipodi.sourceforge.net/DTD/sodipodi-0.dtd"
   xmlns:inkscape="http://www.inkscape.org/namespaces/inkscape"
   version="1.1"
   id="Layer_1"
   x="0px"
   y="0px"
   viewBox="0 0 512 512"
   style="enable-background:new 0 0 512 512;"
   xml:space="preserve"
   inkscape:version="0.91 r13725"
   sodipodi:docname="computer.svg"><metadata
     id="metadata67"><rdf:RDF><cc:Work
         rdf:about=""><dc:format>image/svg+xml</dc:format><dc:type
           rdf:resource="http://purl.org/dc/dcmitype/StillImage" /><dc:title></dc:title></cc:Work></rdf:RDF></metadata><defs
     id="defs65" /><sodipodi:namedview
     pagecolor="#ffffff"
     bordercolor="#666666"
     borderopacity="1"
     objecttolerance="10"
     gridtolerance="10"
     guidetolerance="10"
     inkscape:pageopacity="0"
     inkscape:pageshadow="2"
     inkscape:window-width="1360"
     inkscape:window-height="730"
     id="namedview63"
     showgrid="false"
     inkscape:zoom="0.4609375"
     inkscape:cx="311.0589"
     inkscape:cy="228.4576"
     inkscape:window-x="142"
     inkscape:window-y="12"
     inkscape:window-maximized="0"
     inkscape:current-layer="layer2" /><g
     id="g33" /><g
     id="g35" /><g
     id="g37" /><g
     id="g39" /><g
     id="g41" /><g
     id="g43" /><g
     id="g45" /><g
     id="g47" /><g
     id="g49" /><g
     id="g51" /><g
     id="g53" /><g
     id="g55" /><g
     id="g57" /><g
     id="g59" /><g
     id="g61" /><g
     inkscape:groupmode="layer"
     id="layer1"
     inkscape:label="image"
     style="display:inline" /><g
     inkscape:groupmode="layer"
     id="layer2"
     inkscape:label="computer"
     style="display:inline"><g
       id="g4449"
       transform="matrix(1.8602747,0,0,1.8602747,-221.16392,-207.1658)"
       inkscape:export-filename="/Users/elenatorro/Projects/current/salsajobs/sauce-jobs-client/assets/images/example-laptop.png"
       inkscape:export-xdpi="151"
       inkscape:export-ydpi="151"><g
         transform="translate(1.0847427,-15.18644)"
         id="g4195"><path
           inkscape:connector-curvature="0"
           style="fill:#b9bfd2;fill-opacity:1;stroke:#98a1bd;stroke-width:5;stroke-miterlimit:4;stroke-dasharray:none;stroke-opacity:1"
           d="m 467.862,79.448 -423.724,0 c -14.626,0 -26.483,11.857 -26.483,26.483 l 0,291.31 476.69,0 0,-291.31 c 0,-14.626 -11.857,-26.483 -26.483,-26.483 z m 0,282.483 c 0,4.875 -3.953,8.828 -8.828,8.828 l -406.068,0 c -4.875,0 -8.828,-3.953 -8.828,-8.828 l 0,-247.172 c 0,-4.875 3.953,-8.828 8.828,-8.828 l 406.069,0 c 4.875,0 8.828,3.953 8.828,8.828 l 0,247.172 z"
           id="path21" /><path
           inkscape:connector-curvature="0"
           style="fill:#8a94b4;fill-opacity:1;stroke:#5c6990;stroke-width:5;stroke-miterlimit:4;stroke-dasharray:none;stroke-opacity:1"
           d="m 494.345,432.552 -476.69,0 C 7.904,432.552 0,424.648 0,414.897 l 0,-8.828 c 0,-4.875 3.953,-8.828 8.828,-8.828 l 494.345,0 c 4.875,0 8.828,3.953 8.828,8.828 l 0,8.828 c -10e-4,9.751 -7.905,17.655 -17.656,17.655 z"
           id="path17" /></g><path
         inkscape:connector-curvature="0"
         id="path19"
         d="m 286.94024,401.88005 -59.709,0 c -3.343,0 -6.4,-1.889 -7.895,-4.879 l -6.389,-12.776 88.276,0 -6.388,12.776 c -1.495,2.989 -4.552,4.879 -7.895,4.879 z"
         style="fill:#485587;fill-opacity:1;stroke:#5c6990;stroke-width:5;stroke-miterlimit:4;stroke-dasharray:none;stroke-opacity:1" /></g></g></svg>